<svg width="59" height="50" viewBox="0 0 59 50" fill="none" xmlns="http://www.w3.org/2000/svg">
<g id="Icons1">
<path id="quote-1" d="M23.5091 0V9.88734C20.3833 10.0598 18.0165 10.6303 16.4111 11.5999C14.8045 12.5695 13.6759 14.1417 13.0242 16.3175C12.3737 18.4933 12.0472 21.6055 12.0472 25.6553H23.5091V49.2433H0V26.8184C0 17.5557 1.98609 10.7707 5.95828 6.46219C9.93169 2.15365 15.7815 0 23.5091 0ZM59 0V9.88734C55.8742 10.0598 53.5087 10.6093 51.9021 11.5358C50.2954 12.4611 49.1336 14.0345 48.4178 16.2534C47.7019 18.4711 47.3434 21.6055 47.3434 25.6553H59V49.2433H35.3616V26.8184C35.3616 17.5557 37.3366 10.7707 41.2866 6.46219C45.2378 2.15365 51.1419 0 59 0Z" fill="#1377FE"/>
</g>
</svg>
