<svg width="72" height="56" viewBox="0 0 72 56" fill="none" xmlns="http://www.w3.org/2000/svg">
<path d="M67.9089 2H4.09069C2.78529 2 1.72705 3.05824 1.72705 4.36364V51.6364C1.72705 52.9418 2.78529 54 4.09069 54H67.9089C69.2143 54 70.2725 52.9418 70.2725 51.6364V4.36364C70.2725 3.05824 69.2143 2 67.9089 2Z" stroke="white" stroke-width="3" stroke-linecap="round" stroke-linejoin="round"/>
<path d="M71.4545 10.2727H0.54541V12.6363H71.4545V10.2727Z" fill="white"/>
<path d="M6.45428 7.90911C7.10698 7.90911 7.6361 7.37999 7.6361 6.72729C7.6361 6.07459 7.10698 5.54547 6.45428 5.54547C5.80158 5.54547 5.27246 6.07459 5.27246 6.72729C5.27246 7.37999 5.80158 7.90911 6.45428 7.90911Z" fill="white"/>
<path d="M10.0002 7.90911C10.6529 7.90911 11.182 7.37999 11.182 6.72729C11.182 6.07459 10.6529 5.54547 10.0002 5.54547C9.34748 5.54547 8.81836 6.07459 8.81836 6.72729C8.81836 7.37999 9.34748 7.90911 10.0002 7.90911Z" fill="white"/>
<path d="M13.5456 7.90911C14.1983 7.90911 14.7274 7.37999 14.7274 6.72729C14.7274 6.07459 14.1983 5.54547 13.5456 5.54547C12.8929 5.54547 12.3638 6.07459 12.3638 6.72729C12.3638 7.37999 12.8929 7.90911 13.5456 7.90911Z" fill="white"/>
<path d="M25.3637 25.6364L19.4546 31.5454L25.3637 37.4545" stroke="white" stroke-width="3" stroke-linecap="round" stroke-linejoin="round"/>
<path d="M45.4546 25.6364L51.3637 31.5454L45.4546 37.4545" stroke="white" stroke-width="3" stroke-linecap="round" stroke-linejoin="round"/>
<path d="M38.3637 23.2727L32.4546 39.8182" stroke="white" stroke-width="3" stroke-linecap="round" stroke-linejoin="round"/>
</svg>
