<svg width="74" height="74" viewBox="0 0 74 74" fill="none" xmlns="http://www.w3.org/2000/svg">
<mask id="mask0_87_893" style="mask-type:luminance" maskUnits="userSpaceOnUse" x="0" y="0" width="74" height="74">
<path d="M74 0H0V74H74V0Z" fill="white"/>
</mask>
<g mask="url(#mask0_87_893)">
<path d="M30.8341 4.93335H18.5008C17.8201 4.93335 17.2676 5.4859 17.2676 6.16663C17.2676 6.84737 17.8201 7.39992 18.5008 7.39992H30.8341C31.5149 7.39992 32.0675 6.84737 32.0675 6.16663C32.0675 5.4859 31.5149 4.93335 30.8341 4.93335Z" fill="#1377FE"/>
<path d="M39.4665 4.93335H38.2333C37.5525 4.93335 37 5.4859 37 6.16663C37 6.84737 37.5525 7.39992 38.2333 7.39992H39.4665C40.1473 7.39992 40.6999 6.84737 40.6999 6.16663C40.6999 5.4859 40.1473 4.93335 39.4665 4.93335Z" fill="#1377FE"/>
<path fill-rule="evenodd" clip-rule="evenodd" d="M8.1587 0H41.1763C43.6332 0 45.6337 2.00045 45.6335 4.4585V20.7576C44.8221 21.4676 43.9505 22.2176 43.1667 22.8688V4.4585C43.1667 3.36093 42.2738 2.46672 41.175 2.46672H8.1587C7.05982 2.46672 6.16691 3.36078 6.16691 4.4585V69.5426C6.16691 70.639 7.05982 71.5333 8.1587 71.5333H41.1763C42.2741 71.5333 43.1669 70.6392 43.1669 69.5415L43.1667 43.7149L45.6335 42.3445V69.5429C45.6335 71.9995 43.6331 74 41.175 74H8.1587C5.70065 74 3.7002 71.9995 3.7002 69.5415V4.4585C3.7002 2.00045 5.70065 0 8.1587 0Z" fill="#1377FE" stroke="#1377FE" stroke-width="0.3"/>
<path d="M24.6669 69.0666C26.0292 69.0666 27.1335 67.9623 27.1335 66.6C27.1335 65.2377 26.0292 64.1333 24.6669 64.1333C23.3046 64.1333 22.2002 65.2377 22.2002 66.6C22.2002 67.9623 23.3046 69.0666 24.6669 69.0666Z" stroke="#1377FE" stroke-width="3"/>
<path d="M68.3947 9.28357C66.9795 7.86852 64.1411 8.67587 59.4619 11.8251C55.4869 14.5005 50.7189 18.5525 46.0364 23.2351C39.0943 30.1771 33.8164 36.9929 32.0591 41.2011C31.7699 41.0962 31.4699 41.0124 31.1604 40.9512C29.342 40.5916 27.367 41.0515 25.7416 42.2122C23.4093 43.8777 22.7915 46.2563 22.7018 46.6571C22.2107 48.4909 21.2809 50.2407 20.0114 51.7186C19.6032 52.1939 19.6498 52.9084 20.1165 53.3267C21.7475 54.7885 23.8339 55.5217 26.0039 55.5217C28.0954 55.5217 30.2647 54.8405 32.178 53.4742C33.0751 52.8335 33.7543 52.1251 33.8859 51.985C35.5116 50.238 36.2019 47.9473 35.8594 45.8544C39.9882 44.3743 47.1861 38.8994 54.4434 31.6423C59.126 26.9597 63.1781 22.1916 65.8533 18.2167C69.0025 13.5373 69.81 10.6989 68.3947 9.28357ZM32.2009 50.414C32.139 50.4799 31.5752 51.0742 30.8395 51.5992C28.1673 53.507 24.8959 53.7277 22.5198 52.2588C23.6325 50.7331 24.4596 49.0133 24.9346 47.2239C24.9399 47.2038 24.9448 47.1835 24.9491 47.1631C24.953 47.1449 25.353 45.3202 27.0803 44.0868C28.1913 43.2933 29.5159 42.9742 30.7139 43.211C31.7021 43.4063 32.5327 43.9703 33.0529 44.799C34.0738 46.4251 33.7149 48.7872 32.2009 50.414ZM35.0747 43.693C35.0511 43.6534 34.7018 42.9443 34.0511 42.4173C34.6117 40.9183 35.8188 38.8923 37.5011 36.5657L41.1101 40.1747C38.5712 42.0023 36.4908 43.1937 35.0747 43.693ZM42.9739 38.781L38.8981 34.7052C39.6024 33.7985 40.3645 32.8593 41.1766 31.8987L45.7829 36.5049C44.808 37.3283 43.8691 38.088 42.9739 38.781ZM63.5899 17.4465C60.9955 21.1962 57.1687 25.6591 52.8145 30.0131C50.9863 31.8412 49.214 33.5042 47.53 34.9941L42.6875 30.1515C44.2235 28.4141 45.8981 26.631 47.6653 24.864C52.0194 20.5098 56.4823 16.683 60.232 14.0882C64.8489 10.8937 66.442 10.8885 66.7481 10.9304C66.79 11.2361 66.7845 12.8298 63.5899 17.4465Z" fill="#1377FE" stroke="#1377FE" stroke-width="0.3"/>
<path d="M31.2243 47.3022C30.6672 46.9954 29.9668 47.1984 29.66 47.7558C29.629 47.8121 29.5915 47.8648 29.5484 47.9124C29.4623 48.0021 29.1792 48.2758 28.8851 48.4859C28.439 48.8044 27.9576 49.0325 27.4543 49.1642C26.8388 49.3253 26.4706 49.9547 26.6315 50.5701C26.7671 51.0878 27.2338 51.4305 27.745 51.4305C27.8415 51.4305 27.9395 51.4183 28.0373 51.3929C28.8128 51.19 29.5485 50.8427 30.2238 50.3606C30.6574 50.0509 31.2327 49.4842 31.2367 49.4799C31.408 49.2941 31.5565 49.0878 31.6783 48.8665C31.9849 48.3092 31.7817 47.6088 31.2243 47.3022Z" fill="#1377FE"/>
<path d="M44.4003 9.86664H4.93359V12.3333H44.4003V9.86664Z" fill="#1377FE"/>
<path d="M44.4003 59.2H4.93359V61.6667H44.4003V59.2Z" fill="#1377FE"/>
</g>
</svg>
