<svg width="66" height="57" viewBox="0 0 66 57" fill="none" xmlns="http://www.w3.org/2000/svg">
<path d="M63.1745 25.7514L57.9128 23.245L63.0671 20.7385C64.2483 20.2163 64.8926 19.0675 64.8926 17.8143C64.8926 16.5611 64.1409 15.4122 63.0671 14.89L36.1141 1.73105C35.1476 1.20887 34.0738 1 33 1C31.9262 1 30.8524 1.20887 29.8859 1.73105L2.8255 14.89C1.75168 15.4122 1 16.5611 1 17.8143C1 19.0675 1.75168 20.2163 2.8255 20.7385L7.97986 23.245L2.8255 25.7514C1.75168 26.2736 1 27.4224 1 28.6756C1 29.929 1.75168 31.0777 2.8255 31.5999L7.97986 34.1064L2.8255 36.6128C1.75168 37.2395 1 38.2838 1 39.537C1 40.7904 1.75168 41.9391 2.8255 42.4613L29.8859 55.6203C30.8524 56.038 31.9262 56.3514 33 56.3514C34.0738 56.3514 35.1476 56.1425 36.1141 55.6203L63.1745 42.4613C64.3557 41.9391 65 40.7904 65 39.537C65 38.2838 64.2483 37.135 63.1745 36.6128L57.9128 34.1064L63.0671 31.5999C64.2483 31.0777 64.8926 29.929 64.8926 28.6756C64.8926 27.4224 64.2483 26.2736 63.1745 25.7514ZM4.00671 18.5453C3.68457 18.4409 3.57718 18.1276 3.57718 17.8143C3.57718 17.5009 3.79195 17.1876 4.00671 17.0832L31.0671 3.92422C31.7114 3.61091 32.3557 3.50647 33 3.50647C33.6443 3.50647 34.2886 3.61091 34.9329 3.92422L61.9933 17.0832C62.3154 17.1876 62.4228 17.5009 62.4228 17.8143C62.4228 18.1276 62.2081 18.4409 61.9933 18.5453L34.9329 31.7044C34.2886 32.0177 33.6443 32.1221 33 32.1221C32.3557 32.1221 31.7114 32.0177 31.0671 31.7044L4.00671 18.5453ZM61.9933 38.806C62.3154 38.9105 62.4228 39.2238 62.4228 39.537C62.4228 39.8504 62.2081 40.1637 61.9933 40.2682L34.9329 53.4271C34.2886 53.7405 33.6443 53.8448 33 53.8448C32.3557 53.8448 31.7114 53.7405 31.0671 53.4271L4.00671 40.2682C3.68457 40.1637 3.57718 39.8504 3.57718 39.537C3.57718 39.2238 3.79195 38.9105 4.00671 38.806L10.8792 35.4641L29.9933 44.7589C30.9597 45.1766 32.0336 45.49 33.1074 45.49C34.1812 45.49 35.255 45.2811 36.2214 44.7589L55.1209 35.4641L61.9933 38.806ZM61.9933 29.4067L34.9329 42.5657C34.2886 42.8791 33.6443 42.9834 33 42.9834C32.3557 42.9834 31.7114 42.8791 31.0671 42.5657L4.00671 29.4067C3.68457 29.3023 3.57718 28.989 3.57718 28.6756C3.57718 28.3623 3.79195 28.0491 4.00671 27.9446L10.8792 24.6027L29.9933 33.8975C30.9597 34.3152 32.0336 34.6286 33.1074 34.6286C34.1812 34.6286 35.255 34.4197 36.2214 33.8975L55.3356 24.6027L62.2081 27.9446C62.5302 28.0491 62.6375 28.3623 62.6375 28.6756C62.6375 28.989 62.3154 29.1978 61.9933 29.4067Z" fill="#1377FE" stroke="#1377FE" stroke-width="0.5"/>
</svg>
