<svg width="65" height="65" viewBox="0 0 65 65" fill="none" xmlns="http://www.w3.org/2000/svg">
<path d="M53.1914 35.2061C53.6843 35.899 54.1772 36.5948 54.6758 37.2907C57.7027 41.5236 60.7296 45.7595 63.7622 49.9896C64.2928 50.7289 64.7248 51.4914 64.6552 52.4511C64.5508 53.8717 63.5767 55.0402 62.1763 55.2837C60.3121 55.6084 58.4362 55.8781 56.5633 56.1709C56.2762 56.2144 55.9921 56.2869 55.7051 56.2956C55.1774 56.3101 54.902 56.5913 54.6729 57.0465C53.7742 58.8237 52.8377 60.5836 51.9244 62.3522C51.5243 63.1234 51.0024 63.767 50.1703 64.1034C48.7642 64.6745 47.3493 64.2541 46.407 62.9465C44.9313 60.8996 43.4701 58.8411 42.003 56.7855C40.5766 54.7908 39.1501 52.7961 37.7237 50.8043C37.6599 50.7173 37.6106 50.6187 37.4975 50.5694C34.0647 53.3731 30.661 53.3673 27.2659 50.4361C27.1789 50.4419 27.1499 50.5491 27.0977 50.6216C25.4973 52.8338 23.9027 55.046 22.3023 57.2581C20.9802 59.0876 19.6523 60.9141 18.3332 62.7465C17.7127 63.6076 16.9067 64.1613 15.8311 64.2106C14.5032 64.2715 13.529 63.6395 12.8941 62.5145C12.2185 61.3171 11.5894 60.0907 10.9515 58.8701C10.5543 58.1105 10.1629 57.348 9.79183 56.5768C9.66426 56.3159 9.4874 56.2115 9.21197 56.1651C7.0085 55.8143 4.80214 55.478 2.60737 55.0807C0.325625 54.6661 -0.721021 52.3003 0.543072 50.3549C1.50274 48.8792 2.58708 47.4846 3.62213 46.0552C6.17641 42.5355 8.73068 39.0187 11.285 35.5018C11.398 35.3452 11.5285 35.2003 11.601 34.9741C11.4502 34.6146 11.1835 34.3044 10.8936 34.0145C10.0006 33.1157 9.0902 32.2314 8.20591 31.321C6.79106 29.8685 6.04304 28.1318 6.11842 26.0907C6.1793 24.3975 6.85194 22.9334 7.94788 21.6577C8.73648 20.7415 9.60627 19.8978 10.4877 19.0773C11.5517 18.0857 12.0272 16.9086 11.9866 15.4619C11.9547 14.3282 11.9402 13.1946 12.0446 12.061C12.3171 9.04573 14.8192 6.40157 17.8171 5.96087C18.8898 5.80431 19.9626 5.90869 21.0353 5.89129C21.5166 5.88549 21.9979 5.90289 22.482 5.8623C23.4359 5.78112 24.2013 5.34042 24.8653 4.68518C25.8104 3.75161 26.7295 2.78904 27.7095 1.89316C30.5537 -0.704608 34.6301 -0.617629 37.3815 2.08451C38.3557 3.04128 39.2719 4.05314 40.2866 4.96642C41.0057 5.61006 41.8638 5.88549 42.8119 5.89419C43.8991 5.90289 44.9864 5.88549 46.0736 5.89419C49.373 5.92318 52.1882 8.3267 52.7565 11.5826C52.9855 12.8902 52.8725 14.2094 52.8928 15.5228C52.8986 15.9576 52.916 16.3896 53 16.8187C53.1624 17.6595 53.6147 18.3293 54.2061 18.9236C55.0498 19.7702 55.9051 20.6081 56.7314 21.4721C58.0651 22.8667 58.7957 24.5251 58.758 26.4734C58.7233 28.3318 58.0071 29.9265 56.7285 31.2601C55.8587 32.1676 54.9513 33.0374 54.0728 33.9333C53.7191 34.2928 53.3712 34.6639 53.1943 35.2032L53.1914 35.2061ZM20.525 9.05732C20.0553 9.05732 19.5828 9.05442 19.1131 9.05732C16.7617 9.07472 15.1642 10.6548 15.1265 13.0149C15.112 13.8962 15.1236 14.7776 15.1265 15.659C15.1294 17.7987 14.4655 19.6514 12.8709 21.1474C11.9634 21.9969 11.0704 22.8667 10.2586 23.8089C8.98002 25.2963 8.92784 27.233 10.1629 28.7493C11.0037 29.7815 12.0011 30.6658 12.9463 31.5965C14.4104 33.0374 15.1178 34.7886 15.1294 36.8297C15.1352 37.7836 15.1294 38.7374 15.1207 39.6913C15.1149 40.1581 15.2048 40.6046 15.3498 41.0424C15.8369 42.5123 17.1792 43.5097 18.7101 43.6082C19.893 43.6836 21.0759 43.6256 22.2588 43.6633C24.0825 43.7213 25.6742 44.3678 26.9847 45.6464C27.8573 46.4959 28.73 47.3541 29.5708 48.2355C31.1046 49.8475 33.7632 49.9577 35.4042 48.163C36.2276 47.2642 37.1119 46.4206 37.9846 45.5682C39.2516 44.3331 40.7766 43.6923 42.5452 43.6662C43.4874 43.6517 44.4297 43.6749 45.372 43.6575C45.804 43.6488 46.2447 43.6343 46.668 43.5473C48.4887 43.1791 49.718 41.6715 49.7412 39.8044C49.7557 38.7171 49.7209 37.6299 49.7528 36.5427C49.8021 34.9132 50.2747 33.4172 51.3967 32.2024C52.3709 31.1471 53.4117 30.1526 54.412 29.1205C55.9805 27.4997 55.9747 25.1281 54.3975 23.5219C53.5596 22.6695 52.7188 21.82 51.8548 20.9908C50.4197 19.6108 49.7963 17.9002 49.7499 15.9518C49.7238 14.9255 49.7586 13.8991 49.7412 12.8728C49.7064 10.7186 48.0509 9.07762 45.9026 9.06022C44.911 9.05152 43.9223 9.05732 42.9308 9.06022C40.9361 9.06022 39.2313 8.36149 37.8193 6.94663C36.9756 6.10004 36.1116 5.27084 35.2911 4.40105C33.7429 2.76005 31.0872 2.82094 29.5621 4.43584C28.701 5.34912 27.7907 6.21891 26.9035 7.1061C25.9235 8.08606 24.7348 8.66012 23.3866 8.92395C22.4415 9.10661 21.4876 9.05152 20.5337 9.06022L20.525 9.05732ZM61.5095 52.1641C58.6334 48.1427 55.8037 44.1823 52.916 40.1436C52.8522 40.5089 52.8029 40.7785 52.7565 41.0482C52.1766 44.2983 49.5702 46.58 46.2795 46.7656C45.0705 46.8351 43.8644 46.7888 42.6582 46.8207C42.0697 46.8351 41.5043 46.9656 40.9825 47.2295C40.5012 47.473 40.0518 47.7774 39.7706 48.2442C39.9619 48.6907 48.741 60.9228 48.9961 61.0997C49.3556 60.4155 49.7093 59.7312 50.0718 59.0528C50.7966 57.6872 51.5011 56.313 52.2578 54.9619C52.7884 54.0138 53.6031 53.4455 54.7048 53.2861C56.3748 53.0425 58.0419 52.7729 59.709 52.5033C60.2773 52.4105 60.8571 52.3699 61.5124 52.167L61.5095 52.1641ZM25.0073 48.1833C24.9117 47.9253 24.7522 47.8122 24.6072 47.6875C23.9143 47.1048 23.1054 46.8381 22.2066 46.8149C20.9512 46.7859 19.6958 46.8467 18.4404 46.7569C15.3208 46.5336 12.6389 44.1272 12.1171 41.054C12.0533 40.6857 12.004 40.3146 11.9344 39.8594C9.04671 43.9735 6.11552 47.9398 3.22202 51.9437C3.3206 52.0365 3.41338 52.0481 3.50905 52.0626C5.72122 52.367 7.91598 52.7729 10.1136 53.1556C11.1632 53.3383 11.9228 53.9036 12.4128 54.8488C13.271 56.4985 14.135 58.1453 14.999 59.7921C15.2048 60.1835 15.4165 60.5691 15.6716 61.0417C18.8202 56.7073 21.9138 52.4424 25.0073 48.1833Z" fill="#1377FE"/>
<path d="M32.4384 9.74152C42.0408 9.7937 49.1296 17.5899 49.0252 26.4502C48.9151 35.7105 41.6523 42.9443 32.3572 42.924C23.7521 42.9037 15.866 36.2179 15.8399 26.2588C15.8167 17.4884 22.833 9.82849 32.4384 9.74152ZM32.6123 39.7579C39.4083 39.7231 46.0941 34.3131 45.8679 25.8935C45.6679 18.5467 39.6402 13.0061 32.5717 12.8902C25.3525 12.7742 19.1277 18.6424 18.9972 26.0182C18.8552 34.0608 25.367 39.9609 32.6152 39.7579H32.6123Z" fill="#1377FE"/>
<path d="M31.1454 28.5957C31.85 27.7143 32.5429 26.8474 33.2358 25.9834C34.6014 24.2757 35.9641 22.5651 37.3325 20.8633C37.7587 20.3327 38.3125 20.0834 38.9967 20.2573C39.6462 20.4226 40.0289 20.8575 40.1709 21.5011C40.2724 21.9592 40.1246 22.368 39.852 22.7246C39.1446 23.6437 38.4343 24.5599 37.7094 25.4615C36.0163 27.5693 34.3608 29.7119 32.6154 31.7791C31.9514 32.5648 31.1512 32.6866 30.3191 32.069C29.0492 31.1239 27.8721 30.0656 26.6573 29.0538C26.4254 28.8595 26.1934 28.6682 25.9673 28.4681C25.2773 27.8564 25.1758 26.9692 25.7122 26.3023C26.2949 25.5833 27.1734 25.4818 27.9243 26.0733C28.826 26.7836 29.7074 27.5171 30.6004 28.2391C30.7569 28.3666 30.899 28.5203 31.1454 28.6015V28.5957Z" fill="#1377FE"/>
</svg>
