<svg width="45" height="80" viewBox="0 0 45 80" fill="none" xmlns="http://www.w3.org/2000/svg">
<path fill-rule="evenodd" clip-rule="evenodd" d="M40.2168 0H4.78456C2.14676 0 0 2.16265 0 4.82V75.18C0 77.8373 2.14676 80 4.78456 80H40.2154C42.8532 80 45 77.8373 45 75.1815V4.82C45.0001 2.16265 42.8534 0 40.2168 0ZM42.3529 75.18C42.3529 76.3667 41.3948 77.3333 40.2168 77.3333H4.78456C3.60529 77.3333 2.64706 76.3665 2.64706 75.1812V66.6667H42.3528L42.3529 75.18ZM42.3528 64V13.3333H2.64706V64H42.3528ZM42.3528 10.6667H2.64706V4.82C2.64706 3.63328 3.60529 2.66672 4.78456 2.66672H40.2154C41.3946 2.66672 42.3528 3.63344 42.3528 4.82V10.6667ZM15.883 5.33333H29.1182C29.8488 5.33333 30.4417 5.93068 30.4417 6.66661C30.4417 7.40255 29.8488 7.99989 29.1182 7.99989H15.883C15.1524 7.99989 14.5595 7.40255 14.5595 6.66661C14.5595 5.93068 15.1524 5.33333 15.883 5.33333ZM37.0588 5.33333H38.3822C39.1128 5.33333 39.7057 5.93068 39.7057 6.66661C39.7057 7.40255 39.1128 7.99989 38.3822 7.99989H37.0588C36.3282 7.99989 35.7353 7.40255 35.7353 6.66661C35.7353 5.93068 36.3282 5.33333 37.0588 5.33333ZM23.8235 72C23.8235 72.7364 23.231 73.3333 22.5 73.3333C21.769 73.3333 21.1765 72.7364 21.1765 72C21.1765 71.2636 21.769 70.6667 22.5 70.6667C23.231 70.6667 23.8235 71.2636 23.8235 72ZM26.4706 72C26.4706 74.2092 24.693 76 22.5 76C20.307 76 18.5294 74.2092 18.5294 72C18.5294 69.7908 20.307 68 22.5 68C24.693 68 26.4706 69.7908 26.4706 72Z" fill="#1377FE"/>
</svg>
