<svg width="60" height="69" viewBox="0 0 60 69" fill="none" xmlns="http://www.w3.org/2000/svg">
<path d="M57.7007 65.3829H51.4398V52.5001C51.4398 50.3609 52.0777 48.3048 53.2847 46.554C56.9181 41.2831 59.1066 33.9333 58.996 27.3728C58.8749 20.1857 56.0016 13.492 50.9055 8.52456C45.8109 3.55845 39.0801 0.888788 31.9524 1.00355C26.7966 1.08756 21.8168 2.66207 17.5515 5.55733C16.957 5.96077 16.7993 6.77393 17.1995 7.37352C17.5996 7.97299 18.4057 8.13237 19.0002 7.72854C21.0463 6.33973 23.2749 5.28789 25.6128 4.59577V24.5542L23.6571 26.5252C23.0412 26.1952 22.3396 26.0075 21.595 26.0075C19.1626 26.0075 17.1839 28.0033 17.1839 30.4568C17.1839 32.9101 19.1626 34.9059 21.595 34.9059C24.0274 34.9059 26.0062 32.9101 26.0062 30.4568C26.0062 29.7053 25.8198 28.997 25.4923 28.3755L27.8274 26.0223C28.0709 25.7768 28.2078 25.4437 28.2078 25.0965V3.98453C29.4512 3.76416 30.7167 3.64129 31.9944 3.6206C32.6837 3.60936 33.3664 3.62925 34.0422 3.67596V15.6186C32.2411 16.1787 30.9284 17.8731 30.9284 19.8711C30.9284 22.3244 32.9071 24.3204 35.3395 24.3204C37.772 24.3204 39.7507 22.3244 39.7507 19.8711C39.7507 17.8731 38.438 16.1786 36.6369 15.6186V3.99905C38.5368 4.34309 40.3611 4.91324 42.0809 5.68177V25.0964C42.0809 25.4436 42.2177 25.7767 42.4613 26.0222L44.7963 28.3754C44.469 28.9968 44.2825 29.705 44.2825 30.4566C44.2825 32.91 46.2613 34.9058 48.6936 34.9058C51.1261 34.9058 53.1049 32.91 53.1049 30.4566C53.1049 28.0032 51.1261 26.0074 48.6936 26.0074C47.9491 26.0074 47.2474 26.1951 46.6316 26.5251L44.6759 24.5541V7.03748C51.5725 11.1959 56.2556 18.7432 56.4019 27.417C56.502 33.3649 54.4423 40.29 51.1544 45.0598C49.6438 47.2512 48.8452 49.824 48.8452 52.4999V65.3829H36.637V54.1289C36.637 53.7817 36.5002 53.4487 36.2566 53.2033L33.9216 50.85C34.2491 50.2286 34.4355 49.5203 34.4355 48.7688C34.4355 46.3154 32.4566 44.3196 30.0243 44.3196C27.5919 44.3196 25.6131 46.3154 25.6131 48.7688C25.6131 51.2222 27.5919 53.218 30.0243 53.218C30.7688 53.218 31.4705 53.0302 32.0864 52.7003L34.0422 54.6714V65.3829H29.4873V63.4262C29.4873 60.6122 27.2175 58.323 24.4276 58.323H16.2638C13.4553 58.323 11.1704 56.0184 11.1704 53.1855V43.7412C11.1704 43.0186 10.5896 42.4326 9.87306 42.4326H4.04659L8.31932 28.2188C8.3563 28.0958 8.37512 27.9677 8.37512 27.8392C8.37512 23.2862 9.63414 18.8501 12.0159 15.0105C12.2034 14.7083 12.4004 14.4059 12.6016 14.1113C13.0082 13.5162 12.8594 12.7014 12.2693 12.2914C11.6794 11.8812 10.8715 12.0312 10.4649 12.6265C10.2422 12.9526 10.0238 13.2876 9.81615 13.6224C7.2102 17.8235 5.81677 22.6675 5.78097 27.6429L1.05579 43.3616C0.936683 43.7582 1.01064 44.1881 1.25533 44.521C1.50002 44.8537 1.88665 45.0499 2.29742 45.0499H8.57529V53.1857C8.57529 57.4617 12.0242 60.9403 16.2635 60.9403H24.4272C25.7864 60.9403 26.8922 62.0554 26.8922 63.4264V65.3829H2.29742C1.58085 65.3829 1 65.9688 1 66.6914C1 67.4141 1.58085 68 2.29742 68H57.7007C58.4173 68 58.9981 67.4141 58.9981 66.6914C58.9981 65.9688 58.4173 65.3829 57.7007 65.3829ZM21.595 32.2887C20.5934 32.2887 19.7786 31.4668 19.7786 30.4566C19.7786 29.4464 20.5934 28.6245 21.595 28.6245C22.5966 28.6245 23.4114 29.4464 23.4114 30.4566C23.4114 31.4668 22.5966 32.2887 21.595 32.2887ZM37.1556 19.871C37.1556 20.8812 36.3409 21.703 35.3393 21.703C34.3377 21.703 33.5229 20.8812 33.5229 19.871C33.5229 18.8608 34.3377 18.039 35.3393 18.039C36.3409 18.039 37.1556 18.8608 37.1556 19.871ZM48.6934 28.6245C49.695 28.6245 50.5098 29.4465 50.5098 30.4566C50.5098 31.4668 49.695 32.2887 48.6934 32.2887C47.6918 32.2887 46.8771 31.4668 46.8771 30.4566C46.8771 29.4464 47.6918 28.6245 48.6934 28.6245ZM30.0241 50.6009C29.0225 50.6009 28.2076 49.779 28.2076 48.7688C28.2076 47.7585 29.0225 46.9368 30.0241 46.9368C31.0257 46.9368 31.8404 47.7585 31.8404 48.7688C31.8404 49.779 31.0257 50.6009 30.0241 50.6009Z" fill="#1377FE" stroke="#1377FE" stroke-width="0.5"/>
</svg>
