<svg width="69" height="71" viewBox="0 0 69 71" fill="none" xmlns="http://www.w3.org/2000/svg">
<path d="M67.6102 68.226H55.6782L55.6052 34.1444C55.6036 33.3793 54.9818 32.7603 54.2156 32.7603H54.2126C53.4451 32.7621 52.8243 33.3843 52.8259 34.1503L52.8988 68.226H48.8626L48.8269 53.0626C48.8251 52.2976 48.2034 51.6789 47.4373 51.6789H47.434C46.6665 51.6807 46.0457 52.303 46.0476 53.0691L46.0833 68.226H42.709V49.8713C46.6426 49.5243 49.7354 46.2983 49.7354 42.3808V28.9403C49.7354 26.8031 49.281 24.7081 48.4119 22.7734C51.1562 22.9563 53.7107 24.0707 55.6759 25.9647C57.8266 28.0372 59.0144 30.7932 59.0205 33.7263L59.0459 41.6189C59.0484 42.3834 59.67 43.0015 60.4355 43.0015H60.4401C61.2075 42.9989 61.8277 42.376 61.8253 41.61L61.8 33.7188C61.792 30.0303 60.3028 26.5677 57.6066 23.9692C56.0665 22.4851 54.2373 21.3858 52.2438 20.719C53.6558 19.3776 54.537 17.4847 54.5326 15.3902C54.5238 11.349 51.2271 8.06738 47.1798 8.06738C47.1745 8.06738 47.169 8.06738 47.1639 8.06738C45.9848 8.07001 44.8124 8.35817 43.7735 8.9008C43.0936 9.25607 42.8308 10.0942 43.1867 10.7729C43.5429 11.4515 44.3828 11.7138 45.0625 11.3585C45.7164 11.0169 46.4254 10.8429 47.17 10.8412C49.6959 10.84 51.7479 12.8792 51.7534 15.396C51.7588 17.9129 49.7114 19.965 47.1897 19.9704C47.1298 19.9705 47.0712 19.9757 47.0136 19.9832C46.9395 19.9863 46.8656 19.9889 46.7914 19.993C44.7837 17.2506 41.965 15.2612 38.7549 14.2517C40.4591 12.7593 41.5383 10.5721 41.5383 8.13658C41.5377 3.64998 37.8808 0 33.3855 0C28.89 0 25.2329 3.64998 25.2329 8.13658C25.2329 10.6901 26.4187 12.9715 28.2684 14.4644C25.3217 15.5257 22.7393 17.4271 20.8638 19.9851C20.6437 19.9753 20.4238 19.9695 20.2052 19.9695C20.1012 19.9695 19.9976 19.9711 19.8941 19.9734C19.8687 19.9719 19.8437 19.9695 19.818 19.9695C17.2961 19.9695 15.2444 17.9218 15.2444 15.4049C15.2444 12.888 17.2961 10.8404 19.818 10.8404C20.5802 10.8404 21.3343 11.0309 21.9984 11.3913C22.6727 11.757 23.5164 11.5082 23.8832 10.8353C24.2497 10.1623 24.0003 9.32013 23.326 8.95418C22.2556 8.37329 21.0425 8.06626 19.8178 8.06626C15.7634 8.06626 12.4649 11.3583 12.4649 15.4048C12.4649 17.6082 13.4444 19.5865 14.9901 20.9329C9.73612 22.9549 6.01116 27.9376 6.01116 33.749V41.6144C6.01116 42.3805 6.63336 43.0015 7.40088 43.0015C8.16842 43.0015 8.79061 42.3805 8.79061 41.6144V33.749C8.79061 27.9968 13.3919 23.2646 19.2314 22.7863C18.3662 24.7173 17.9137 26.8075 17.9137 28.9403V42.3808C17.9137 46.3758 21.1299 49.6518 25.1743 49.8887V68.2259H21.3883V53.0653C21.3883 52.2993 20.7661 51.6783 19.9985 51.6783C19.2311 51.6783 18.6088 52.2993 18.6088 53.0653V68.226H15.1928V34.1613C15.1928 33.3952 14.5706 32.7743 13.803 32.7743C13.0355 32.7743 12.4133 33.3952 12.4133 34.1613V68.226H1.38972C0.622199 68.226 0 68.8469 0 69.613C0 70.379 0.622057 71 1.38972 71H67.6103C68.3779 71 69 70.379 69 69.613C68.9998 68.8469 68.3776 68.226 67.6102 68.226ZM28.0122 8.13658C28.0122 5.17967 30.4226 2.77399 33.3854 2.77399C36.3481 2.77399 38.7583 5.17967 38.7583 8.13658C38.7583 11.0935 36.3479 13.4991 33.3854 13.4991C30.4228 13.4991 28.0122 11.0935 28.0122 8.13658ZM41.3192 28.0209C40.5517 28.0209 39.9295 28.6419 39.9295 29.4078V68.226H34.98V48.9302C34.98 48.1641 34.3578 47.5433 33.5902 47.5433C32.8228 47.5433 32.2005 48.1641 32.2005 48.9302V68.2261H27.9537V29.4078C27.9537 28.6419 27.3315 28.0209 26.564 28.0209C25.7964 28.0209 25.1743 28.6419 25.1743 29.4078V47.1081C22.6639 46.8807 20.693 44.8479 20.693 42.3811V28.9404C20.693 26.54 21.3925 24.2035 22.7158 22.1837C25.1406 18.4827 29.2934 16.2732 33.8244 16.2732C38.3629 16.2732 42.5195 18.4884 44.9428 22.1991C46.2596 24.2155 46.9557 26.5465 46.9557 28.9404V42.3811C46.9557 44.7706 45.1064 46.7527 42.7089 47.0813V29.4078C42.709 28.6419 42.0867 28.0209 41.3192 28.0209Z" fill="#1377FE"/>
</svg>
